<mxfile host="app.diagrams.net" modified="2023-12-13T02:20:39.011Z" agent="Mozilla/5.0 (Windows NT 10.0; Win64; x64) AppleWebKit/537.36 (KHTML, like Gecko) Chrome/119.0.0.0 Safari/537.36" etag="32ZLW8l7JkSAhocwZUq3" version="22.1.8" type="github">
  <diagram name="Page-1" id="9vrbsX0v3hOGb2_lDx9w">
    <mxGraphModel dx="1050" dy="1634" grid="1" gridSize="10" guides="1" tooltips="1" connect="1" arrows="1" fold="1" page="1" pageScale="1" pageWidth="850" pageHeight="1100" math="0" shadow="0">
      <root>
        <mxCell id="0" />
        <mxCell id="1" parent="0" />
        <mxCell id="ZVOJQvc9JVb5hvBGL_Pq-1" value="App.js" style="ellipse;whiteSpace=wrap;html=1;aspect=fixed;" vertex="1" parent="1">
          <mxGeometry x="360" y="-410" width="85" height="85" as="geometry" />
        </mxCell>
        <mxCell id="ZVOJQvc9JVb5hvBGL_Pq-2" value="Navbar" style="whiteSpace=wrap;html=1;aspect=fixed;" vertex="1" parent="1">
          <mxGeometry x="170" y="-240" width="80" height="80" as="geometry" />
        </mxCell>
        <mxCell id="ZVOJQvc9JVb5hvBGL_Pq-3" value="Mixes" style="whiteSpace=wrap;html=1;aspect=fixed;" vertex="1" parent="1">
          <mxGeometry x="560" y="-240" width="80" height="80" as="geometry" />
        </mxCell>
        <mxCell id="ZVOJQvc9JVb5hvBGL_Pq-4" value="" style="edgeStyle=entityRelationEdgeStyle;fontSize=12;html=1;endArrow=ERzeroToMany;endFill=1;rounded=0;entryX=0;entryY=0.5;entryDx=0;entryDy=0;" edge="1" parent="1" target="ZVOJQvc9JVb5hvBGL_Pq-1">
          <mxGeometry width="100" height="100" relative="1" as="geometry">
            <mxPoint x="250" y="-200" as="sourcePoint" />
            <mxPoint x="450" y="-320" as="targetPoint" />
            <Array as="points">
              <mxPoint x="270" y="-180" />
              <mxPoint x="380" y="-360" />
              <mxPoint x="270" y="-190" />
              <mxPoint x="400" y="-490" />
              <mxPoint x="390" y="-480" />
            </Array>
          </mxGeometry>
        </mxCell>
        <mxCell id="ZVOJQvc9JVb5hvBGL_Pq-5" value="" style="edgeStyle=entityRelationEdgeStyle;fontSize=12;html=1;endArrow=ERzeroToMany;endFill=1;rounded=0;" edge="1" parent="1" source="ZVOJQvc9JVb5hvBGL_Pq-3" target="ZVOJQvc9JVb5hvBGL_Pq-1">
          <mxGeometry width="100" height="100" relative="1" as="geometry">
            <mxPoint x="530" y="-270" as="sourcePoint" />
            <mxPoint x="600" y="-340" as="targetPoint" />
            <Array as="points">
              <mxPoint x="550" y="-250" />
              <mxPoint x="550" y="-260" />
            </Array>
          </mxGeometry>
        </mxCell>
        <mxCell id="ZVOJQvc9JVb5hvBGL_Pq-8" value="" style="endArrow=none;html=1;rounded=0;" edge="1" parent="1">
          <mxGeometry relative="1" as="geometry">
            <mxPoint x="390" y="-325" as="sourcePoint" />
            <mxPoint x="340" y="-150" as="targetPoint" />
            <Array as="points" />
          </mxGeometry>
        </mxCell>
        <mxCell id="ZVOJQvc9JVb5hvBGL_Pq-9" value="1" style="resizable=0;html=1;whiteSpace=wrap;align=right;verticalAlign=bottom;" connectable="0" vertex="1" parent="ZVOJQvc9JVb5hvBGL_Pq-8">
          <mxGeometry x="1" relative="1" as="geometry" />
        </mxCell>
        <mxCell id="ZVOJQvc9JVb5hvBGL_Pq-10" value="" style="endArrow=none;html=1;rounded=0;" edge="1" parent="1" source="ZVOJQvc9JVb5hvBGL_Pq-1">
          <mxGeometry relative="1" as="geometry">
            <mxPoint x="420" y="-325" as="sourcePoint" />
            <mxPoint x="470" y="-150" as="targetPoint" />
            <Array as="points" />
          </mxGeometry>
        </mxCell>
        <mxCell id="ZVOJQvc9JVb5hvBGL_Pq-11" value="1" style="resizable=0;html=1;whiteSpace=wrap;align=right;verticalAlign=bottom;" connectable="0" vertex="1" parent="ZVOJQvc9JVb5hvBGL_Pq-10">
          <mxGeometry x="1" relative="1" as="geometry" />
        </mxCell>
        <mxCell id="ZVOJQvc9JVb5hvBGL_Pq-12" value="About the DJ" style="whiteSpace=wrap;html=1;aspect=fixed;" vertex="1" parent="1">
          <mxGeometry x="300" y="-150" width="80" height="80" as="geometry" />
        </mxCell>
        <mxCell id="ZVOJQvc9JVb5hvBGL_Pq-13" value="Pricing" style="whiteSpace=wrap;html=1;aspect=fixed;" vertex="1" parent="1">
          <mxGeometry x="440" y="-150" width="80" height="80" as="geometry" />
        </mxCell>
        <mxCell id="ZVOJQvc9JVb5hvBGL_Pq-14" value="DJ Page for my partner&#39;s business" style="rounded=0;whiteSpace=wrap;html=1;" vertex="1" parent="1">
          <mxGeometry x="342.5" y="-510" width="120" height="60" as="geometry" />
        </mxCell>
      </root>
    </mxGraphModel>
  </diagram>
</mxfile>
